<svg width="33" height="32" viewBox="0 0 33 32" fill="none" xmlns="http://www.w3.org/2000/svg">
<path d="M16.6997 20.7003C18.2552 20.7003 19.5775 20.2003 20.6663 19.2003C21.7552 18.2003 22.2997 16.9892 22.2997 15.567C22.2997 14.3003 21.8939 13.2283 21.0823 12.351C20.2708 11.4737 19.2877 11.0345 18.133 11.0337C17.0886 11.0337 16.2055 11.367 15.4837 12.0337C14.7619 12.7003 14.4006 13.5225 14.3997 14.5003C14.3997 14.9225 14.4721 15.3394 14.617 15.751C14.7619 16.1625 15.0117 16.5234 15.3663 16.8337C15.721 17.1439 16.0766 17.2719 16.433 17.2177C16.7895 17.1634 17.0783 17.0132 17.2997 16.767C17.521 16.5208 17.649 16.2261 17.6837 15.883C17.7183 15.5399 17.5792 15.2234 17.2663 14.9337C17.2219 14.8892 17.1775 14.8337 17.133 14.767C17.0886 14.7003 17.0663 14.6225 17.0663 14.5337C17.0663 14.2892 17.1663 14.095 17.3663 13.951C17.5663 13.807 17.8219 13.7345 18.133 13.7337C18.5775 13.7337 18.9441 13.9172 19.233 14.2843C19.5219 14.6514 19.6663 15.0901 19.6663 15.6003C19.6663 16.2892 19.3828 16.8728 18.8157 17.351C18.2486 17.8292 17.5543 18.0679 16.733 18.067C15.6886 18.067 14.8055 17.6448 14.0837 16.8003C13.3619 15.9559 13.0006 14.9225 12.9997 13.7003C12.9997 13.2781 13.0499 12.867 13.1503 12.467C13.2508 12.067 13.4006 11.6892 13.5997 11.3337C13.7775 11.0003 13.8663 10.6501 13.8663 10.283C13.8663 9.91588 13.733 9.59944 13.4663 9.33366C13.1997 9.06788 12.8775 8.93988 12.4997 8.94966C12.1219 8.95944 11.833 9.12077 11.633 9.43366C11.1886 10.0559 10.8552 10.7225 10.633 11.4337C10.4108 12.1448 10.2997 12.8892 10.2997 13.667C10.2997 15.6225 10.9219 17.2839 12.1663 18.651C13.4108 20.0181 14.9219 20.7012 16.6997 20.7003ZM8.33301 23.6003C7.06634 22.4448 6.08323 21.095 5.38367 19.551C4.68412 18.007 4.3339 16.379 4.33301 14.667C4.33301 11.3337 5.49967 8.50033 7.83301 6.16699C10.1663 3.83366 12.9997 2.66699 16.333 2.66699C19.1108 2.66699 21.5721 3.48388 23.717 5.11766C25.8619 6.75144 27.2561 8.87899 27.8997 11.5003L29.633 18.3337C29.7441 18.7559 29.6663 19.1394 29.3997 19.4843C29.133 19.8292 28.7775 20.0012 28.333 20.0003H25.6663V24.0003C25.6663 24.7337 25.4055 25.3617 24.8837 25.8843C24.3619 26.407 23.7339 26.6679 22.9997 26.667H20.333V28.0003C20.333 28.3781 20.205 28.695 19.949 28.951C19.693 29.207 19.3766 29.3345 18.9997 29.3337C18.6228 29.3328 18.3063 29.2048 18.0503 28.9497C17.7943 28.6945 17.6663 28.3781 17.6663 28.0003V25.3337C17.6663 24.9559 17.7943 24.6394 18.0503 24.3843C18.3063 24.1292 18.6228 24.0012 18.9997 24.0003H22.9997V18.667C22.9997 18.2892 23.1277 17.9728 23.3837 17.7177C23.6397 17.4625 23.9561 17.3345 24.333 17.3337H26.5997L25.333 12.167C24.8219 10.1448 23.733 8.50033 22.0663 7.23366C20.3997 5.96699 18.4886 5.33366 16.333 5.33366C13.7552 5.33366 11.5552 6.23366 9.73301 8.03366C7.91079 9.83366 6.99967 12.0225 6.99967 14.6003C6.99967 15.9337 7.27212 17.2003 7.81701 18.4003C8.3619 19.6003 9.1339 20.667 10.133 21.6003L10.9997 22.4003V28.0003C10.9997 28.3781 10.8717 28.695 10.6157 28.951C10.3597 29.207 10.0432 29.3345 9.66634 29.3337C9.28945 29.3328 8.97301 29.2048 8.71701 28.9497C8.46101 28.6945 8.33301 28.3781 8.33301 28.0003V23.6003Z" fill="#F0FFFA"/>
</svg>
