<svg width="32" height="32" viewBox="0 0 32 32" fill="none" xmlns="http://www.w3.org/2000/svg">
<path d="M16.0003 20.6667C17.2003 20.6667 18.295 20.3391 19.2843 19.684C20.2737 19.0289 21.0234 18.1564 21.5337 17.0667C21.6892 16.7333 21.6892 16.4 21.5337 16.0667C21.3781 15.7333 21.1226 15.5 20.767 15.3667C20.4337 15.2333 20.1061 15.2391 19.7843 15.384C19.4626 15.5289 19.2234 15.7676 19.067 16.1C18.8003 16.7 18.3839 17.1667 17.8177 17.5C17.2514 17.8333 16.6457 18 16.0003 18C15.355 18 14.7497 17.8333 14.1843 17.5C13.619 17.1667 13.2021 16.7 12.9337 16.1C12.7781 15.7667 12.5394 15.528 12.2177 15.384C11.8959 15.24 11.5679 15.2342 11.2337 15.3667C10.8781 15.5 10.6226 15.7333 10.467 16.0667C10.3114 16.4 10.3114 16.7333 10.467 17.0667C10.9781 18.1556 11.7283 19.028 12.7177 19.684C13.707 20.34 14.8012 20.6676 16.0003 20.6667ZM12.3337 14C12.8003 14 13.195 13.8387 13.5177 13.516C13.8403 13.1933 14.0012 12.7991 14.0003 12.3333C13.9994 11.8676 13.8381 11.4729 13.5163 11.1493C13.1946 10.8258 12.8003 10.6649 12.3337 10.6667C11.867 10.6684 11.4723 10.8298 11.1497 11.1507C10.827 11.4716 10.6661 11.8658 10.667 12.3333C10.6679 12.8009 10.8292 13.1956 11.151 13.5173C11.4728 13.8391 11.867 14 12.3337 14ZM19.667 14C20.1337 14 20.5283 13.8387 20.851 13.516C21.1737 13.1933 21.3346 12.7991 21.3337 12.3333C21.3328 11.8676 21.1714 11.4729 20.8497 11.1493C20.5279 10.8258 20.1337 10.6649 19.667 10.6667C19.2003 10.6684 18.8057 10.8298 18.483 11.1507C18.1603 11.4716 17.9994 11.8658 18.0003 12.3333C18.0012 12.8009 18.1626 13.1956 18.4843 13.5173C18.8061 13.8391 19.2003 14 19.667 14ZM16.0003 6.8C16.7559 5.91111 17.6559 5.22222 18.7003 4.73333C19.7448 4.24444 20.8448 4 22.0003 4C24.0892 4 25.8337 4.7 27.2337 6.1C28.6337 7.5 29.3337 9.24444 29.3337 11.3333C29.3337 12.2667 29.195 13.1613 28.9177 14.0173C28.6403 14.8733 28.1626 15.7956 27.4843 16.784C26.8061 17.7724 25.895 18.8556 24.751 20.0333C23.607 21.2111 22.1679 22.5778 20.4337 24.1333L17.767 26.4667C17.2559 26.9111 16.667 27.1333 16.0003 27.1333C15.3337 27.1333 14.7448 26.9111 14.2337 26.4667L11.567 24.1333C9.83366 22.5778 8.39455 21.2111 7.24966 20.0333C6.10477 18.8556 5.19366 17.7724 4.51633 16.784C3.839 15.7956 3.36122 14.8733 3.083 14.0173C2.80477 13.1613 2.66611 12.2667 2.667 11.3333C2.667 9.24444 3.367 7.5 4.767 6.1C6.167 4.7 7.91144 4 10.0003 4C11.1559 4 12.2559 4.24444 13.3003 4.73333C14.3448 5.22222 15.2448 5.91111 16.0003 6.8ZM26.667 11.3333C26.667 10 26.2226 8.88889 25.3337 8C24.4448 7.11111 23.3337 6.66667 22.0003 6.66667C21.2226 6.66667 20.4728 6.83911 19.751 7.184C19.0292 7.52889 18.4234 8.012 17.9337 8.63333C17.6226 9.01111 17.3061 9.3 16.9843 9.5C16.6626 9.7 16.3346 9.8 16.0003 9.8C15.6661 9.8 15.3328 9.7 15.0003 9.5C14.6679 9.3 14.3457 9 14.0337 8.6C13.5448 8 12.9448 7.528 12.2337 7.184C11.5226 6.84 10.7781 6.66756 10.0003 6.66667C8.667 6.66667 7.55589 7.11111 6.667 8C5.77811 8.88889 5.33366 10 5.33366 11.3333C5.33366 12.0889 5.48922 12.8502 5.80033 13.6173C6.11144 14.3844 6.667 15.2564 7.467 16.2333C8.267 17.2102 9.35589 18.3547 10.7337 19.6667C12.1114 20.9787 13.867 22.5564 16.0003 24.4C18.1337 22.5556 19.8892 20.9778 21.267 19.6667C22.6448 18.3556 23.7337 17.2111 24.5337 16.2333C25.3337 15.2556 25.8892 14.3831 26.2003 13.616C26.5114 12.8489 26.667 12.088 26.667 11.3333Z" fill="#F0FFFA"/>
</svg>
