<svg width="32" height="33" viewBox="0 0 32 33" fill="none" xmlns="http://www.w3.org/2000/svg">
<path d="M15.8334 27.041C15.9223 27.041 16.0111 27.0188 16.1 26.9744C16.1889 26.9299 16.2556 26.8855 16.3 26.841L27.2334 15.9077C27.5 15.641 27.6947 15.341 27.8174 15.0077C27.94 14.6743 28.0009 14.341 28 14.0077C28 13.6521 27.9391 13.313 27.8174 12.9903C27.6956 12.6677 27.5009 12.3846 27.2334 12.141L21.5667 6.47435C21.3223 6.20768 21.0387 6.01346 20.716 5.89168C20.3934 5.7699 20.0551 5.70857 19.7014 5.70768C19.368 5.70768 19.0347 5.76902 18.7014 5.89168C18.368 6.01435 18.068 6.20857 17.8014 6.47435L17.4347 6.84102L19.9014 9.34102C20.2347 9.65213 20.4791 10.0077 20.6347 10.4077C20.7903 10.8077 20.868 11.2299 20.868 11.6743C20.868 12.6077 20.5516 13.3912 19.9187 14.025C19.2858 14.6588 18.5023 14.9752 17.568 14.9743C17.1236 14.9743 16.696 14.8966 16.2854 14.741C15.8747 14.5855 15.5134 14.3521 15.2014 14.041L12.7 11.5743L6.8667 17.4077C6.80004 17.4743 6.75026 17.5468 6.71737 17.625C6.68448 17.7032 6.66759 17.7863 6.6667 17.8743C6.6667 18.0521 6.73337 18.2135 6.8667 18.3583C7.00004 18.5032 7.15559 18.5752 7.33337 18.5743C7.42226 18.5743 7.51115 18.5521 7.60004 18.5077C7.68893 18.4632 7.75559 18.4188 7.80004 18.3743L11.4 14.7743C11.6445 14.5299 11.9503 14.4019 12.3174 14.3903C12.6845 14.3788 13.0009 14.5068 13.2667 14.7743C13.5111 15.0188 13.6334 15.3299 13.6334 15.7077C13.6334 16.0855 13.5111 16.3966 13.2667 16.641L9.70004 20.241C9.63337 20.3077 9.58359 20.3801 9.5507 20.4583C9.51781 20.5366 9.50093 20.6197 9.50004 20.7077C9.50004 20.8855 9.5667 21.041 9.70004 21.1744C9.83337 21.3077 9.98893 21.3743 10.1667 21.3743C10.2556 21.3743 10.3445 21.3521 10.4334 21.3077C10.5223 21.2632 10.5889 21.2188 10.6334 21.1744L14.2334 17.6077C14.4778 17.3632 14.7836 17.2352 15.1507 17.2237C15.5178 17.2121 15.8343 17.3401 16.1 17.6077C16.3445 17.8521 16.4667 18.1632 16.4667 18.541C16.4667 18.9188 16.3445 19.2299 16.1 19.4743L12.5334 23.0743C12.4667 23.1188 12.4169 23.1855 12.384 23.2743C12.3511 23.3632 12.3343 23.4521 12.3334 23.541C12.3334 23.7188 12.4 23.8744 12.5334 24.0077C12.6667 24.141 12.8223 24.2077 13 24.2077C13.0889 24.2077 13.1725 24.1908 13.2507 24.157C13.3289 24.1232 13.4009 24.0735 13.4667 24.0077L17.0667 20.441C17.3111 20.1966 17.6169 20.0686 17.984 20.057C18.3511 20.0455 18.6676 20.1735 18.9334 20.441C19.1778 20.6855 19.3 20.9966 19.3 21.3743C19.3 21.7521 19.1778 22.0632 18.9334 22.3077L15.3334 25.9077C15.2667 25.9743 15.2169 26.0468 15.184 26.125C15.1511 26.2032 15.1343 26.2863 15.1334 26.3743C15.1334 26.5521 15.2058 26.7077 15.3507 26.841C15.4956 26.9744 15.6565 27.041 15.8334 27.041ZM15.8 29.7077C14.9778 29.7077 14.2503 29.4357 13.6174 28.8917C12.9845 28.3477 12.612 27.6641 12.5 26.841C11.7445 26.7299 11.1111 26.4188 10.6 25.9077C10.0889 25.3966 9.77781 24.7632 9.6667 24.0077C8.91115 23.8966 8.28359 23.5801 7.78404 23.0584C7.28448 22.5366 6.9787 21.9086 6.8667 21.1744C6.02226 21.0632 5.33337 20.6966 4.80004 20.0743C4.2667 19.4521 4.00004 18.7188 4.00004 17.8743C4.00004 17.4299 4.08359 17.0023 4.2507 16.5917C4.41781 16.181 4.65648 15.8197 4.9667 15.5077L10.8 9.67435C11.3111 9.16324 11.9391 8.90768 12.684 8.90768C13.4289 8.90768 14.0565 9.16324 14.5667 9.67435L17.0667 12.1743C17.1111 12.241 17.1778 12.2912 17.2667 12.325C17.3556 12.3588 17.4445 12.3752 17.5334 12.3743C17.7334 12.3743 17.9 12.3135 18.0334 12.1917C18.1667 12.0699 18.2334 11.9086 18.2334 11.7077C18.2334 11.6188 18.2165 11.5299 18.1827 11.441C18.1489 11.3521 18.0991 11.2855 18.0334 11.241L13.2667 6.47435C13.0223 6.20768 12.7391 6.01346 12.4174 5.89168C12.0956 5.7699 11.7565 5.70857 11.4 5.70768C11.0667 5.70768 10.7334 5.76902 10.4 5.89168C10.0667 6.01435 9.7667 6.20857 9.50004 6.47435L4.80004 11.2077C4.48893 11.5188 4.2667 11.8855 4.13337 12.3077C4.00004 12.7299 3.9667 13.1521 4.03337 13.5743C4.10004 13.9521 4.02226 14.2855 3.80004 14.5743C3.57781 14.8632 3.27781 15.0299 2.90004 15.0743C2.52226 15.1188 2.18893 15.0352 1.90004 14.8237C1.61115 14.6121 1.44448 14.3179 1.40004 13.941C1.2667 13.0966 1.32804 12.269 1.58404 11.4583C1.84004 10.6477 2.2787 9.93079 2.90004 9.30768L7.60004 4.60768C8.13337 4.09657 8.72804 3.70768 9.38404 3.44102C10.04 3.17435 10.712 3.04102 11.4 3.04102C12.088 3.04102 12.7605 3.17435 13.4174 3.44102C14.0743 3.70768 14.6574 4.09657 15.1667 4.60768L15.5334 4.97435L15.9 4.60768C16.4334 4.09657 17.028 3.70768 17.684 3.44102C18.34 3.17435 19.012 3.04102 19.7 3.04102C20.388 3.04102 21.0605 3.17435 21.7174 3.44102C22.3743 3.70768 22.9574 4.09657 23.4667 4.60768L29.1 10.241C29.6111 10.7521 30 11.341 30.2667 12.0077C30.5334 12.6743 30.6667 13.3521 30.6667 14.041C30.6667 14.7299 30.5334 15.4023 30.2667 16.0583C30 16.7143 29.6111 17.2975 29.1 17.8077L18.1667 28.7077C17.8556 29.0188 17.4947 29.2632 17.084 29.441C16.6734 29.6188 16.2454 29.7077 15.8 29.7077Z" fill="#F0FFFA"/>
</svg>
