<svg width="33" height="32" viewBox="0 0 33 32" fill="none" xmlns="http://www.w3.org/2000/svg">
<path d="M8.66667 20.4337C8.97778 20.2781 9.3 20.167 9.63333 20.1003C9.96667 20.0337 10.3111 20.0003 10.6667 20.0003H11.3333V5.33366H10.6667C10.1111 5.33366 9.63911 5.52833 9.25067 5.91766C8.86222 6.30699 8.66756 6.77899 8.66667 7.33366V20.4337ZM14 20.0003H24.6667V5.33366H14V20.0003ZM10.6667 29.3337C9.37778 29.3337 8.27778 28.8781 7.36667 27.967C6.45556 27.0559 6 25.9559 6 24.667V7.33366C6 6.04477 6.45556 4.94477 7.36667 4.03366C8.27778 3.12255 9.37778 2.66699 10.6667 2.66699H24.6667C25.4 2.66699 26.028 2.92788 26.5507 3.44966C27.0733 3.97144 27.3342 4.59944 27.3333 5.33366V22.0337C27.3333 22.2114 27.2613 22.3728 27.1173 22.5177C26.9733 22.6625 26.712 22.8234 26.3333 23.0003C26.0222 23.1559 25.7778 23.3781 25.6 23.667C25.4222 23.9559 25.3333 24.2892 25.3333 24.667C25.3333 25.0448 25.4222 25.3839 25.6 25.6843C25.7778 25.9848 26.0222 26.2012 26.3333 26.3337C26.6444 26.4661 26.8889 26.6497 27.0667 26.8843C27.2444 27.119 27.3333 27.3688 27.3333 27.6337V27.967C27.3333 28.3448 27.2053 28.667 26.9493 28.9337C26.6933 29.2003 26.3769 29.3337 26 29.3337H10.6667ZM10.6667 26.667H23.1C22.9667 26.3559 22.8613 26.0394 22.784 25.7177C22.7067 25.3959 22.6676 25.0457 22.6667 24.667C22.6667 24.3114 22.7 23.967 22.7667 23.6337C22.8333 23.3003 22.9444 22.9781 23.1 22.667H10.6667C10.0889 22.667 9.61111 22.8617 9.23333 23.251C8.85556 23.6403 8.66667 24.1123 8.66667 24.667C8.66667 25.2448 8.85556 25.7225 9.23333 26.1003C9.61111 26.4781 10.0889 26.667 10.6667 26.667Z" fill="#F0FFFA"/>
</svg>
