<svg width="32" height="33" viewBox="0 0 32 33" fill="none" xmlns="http://www.w3.org/2000/svg">
<path d="M3.6336 28.8506C3.38915 28.8506 3.16693 28.7897 2.96693 28.6679C2.76693 28.5461 2.61138 28.3848 2.50027 28.1839C2.38915 27.983 2.32827 27.7661 2.3176 27.5333C2.30693 27.3004 2.36782 27.0728 2.50027 26.8506L14.8336 5.51725C14.9669 5.29503 15.1394 5.12836 15.3509 5.01725C15.5625 4.90614 15.7789 4.85059 16.0003 4.85059C16.2216 4.85059 16.4385 4.90614 16.6509 5.01725C16.8634 5.12836 17.0354 5.29503 17.1669 5.51725L29.5003 26.8506C29.6336 27.0728 29.6949 27.3008 29.6843 27.5346C29.6736 27.7684 29.6123 27.9848 29.5003 28.1839C29.3883 28.383 29.2327 28.5444 29.0336 28.6679C28.8345 28.7915 28.6123 28.8524 28.3669 28.8506H3.6336ZM5.9336 26.1839H26.0669L16.0003 8.85059L5.9336 26.1839ZM16.0003 24.8506C16.378 24.8506 16.6949 24.7226 16.9509 24.4666C17.2069 24.2106 17.3345 23.8941 17.3336 23.5173C17.3327 23.1404 17.2047 22.8239 16.9496 22.5679C16.6945 22.3119 16.378 22.1839 16.0003 22.1839C15.6225 22.1839 15.306 22.3119 15.0509 22.5679C14.7958 22.8239 14.6678 23.1404 14.6669 23.5173C14.666 23.8941 14.794 24.211 15.0509 24.4679C15.3078 24.7248 15.6243 24.8524 16.0003 24.8506ZM16.0003 20.8506C16.378 20.8506 16.6949 20.7226 16.9509 20.4666C17.2069 20.2106 17.3345 19.8941 17.3336 19.5173V15.5173C17.3336 15.1395 17.2056 14.823 16.9496 14.5679C16.6936 14.3128 16.3772 14.1848 16.0003 14.1839C15.6234 14.183 15.3069 14.311 15.0509 14.5679C14.7949 14.8248 14.6669 15.1413 14.6669 15.5173V19.5173C14.6669 19.895 14.7949 20.2119 15.0509 20.4679C15.3069 20.7239 15.6234 20.8515 16.0003 20.8506Z" fill="#F0FFFA"/>
</svg>
