<svg width="32" height="33" viewBox="0 0 32 33" fill="none" xmlns="http://www.w3.org/2000/svg">
<path d="M6.66634 27.0423C6.28856 27.0423 5.97212 26.9143 5.71701 26.6583C5.4619 26.4023 5.3339 26.0859 5.33301 25.709V13.709C5.33301 13.3312 5.46101 13.0148 5.71701 12.7597C5.97301 12.5045 6.28945 12.3765 6.66634 12.3757H9.33301C9.71079 12.3757 10.0277 12.5037 10.2837 12.7597C10.5397 13.0157 10.6672 13.3321 10.6663 13.709V25.709C10.6663 26.0868 10.5383 26.4037 10.2823 26.6597C10.0263 26.9157 9.7099 27.0432 9.33301 27.0423H6.66634ZM6.66634 11.0423C6.28856 11.0423 5.97212 10.9143 5.71701 10.6583C5.4619 10.4023 5.3339 10.0859 5.33301 9.70898V7.04232C5.33301 6.66454 5.46101 6.3481 5.71701 6.09298C5.97301 5.83787 6.28945 5.70987 6.66634 5.70898H9.33301C9.71079 5.70898 10.0277 5.83698 10.2837 6.09298C10.5397 6.34898 10.6672 6.66543 10.6663 7.04232V9.70898C10.6663 10.0868 10.5383 10.4037 10.2823 10.6597C10.0263 10.9157 9.7099 11.0432 9.33301 11.0423H6.66634ZM14.6663 27.0423C14.2886 27.0423 13.9721 26.9143 13.717 26.6583C13.4619 26.4023 13.3339 26.0859 13.333 25.709V17.709C13.333 17.3312 13.461 17.0148 13.717 16.7597C13.973 16.5045 14.2895 16.3765 14.6663 16.3757H17.333C17.7108 16.3757 18.0277 16.5037 18.2837 16.7597C18.5397 17.0157 18.6672 17.3321 18.6663 17.709V25.709C18.6663 26.0868 18.5383 26.4037 18.2823 26.6597C18.0263 26.9157 17.7099 27.0432 17.333 27.0423H14.6663ZM14.6663 15.0423C14.2886 15.0423 13.9721 14.9143 13.717 14.6583C13.4619 14.4023 13.3339 14.0859 13.333 13.709V11.0423C13.333 10.6645 13.461 10.3481 13.717 10.093C13.973 9.83787 14.2895 9.70987 14.6663 9.70898H17.333C17.7108 9.70898 18.0277 9.83698 18.2837 10.093C18.5397 10.349 18.6672 10.6654 18.6663 11.0423V13.709C18.6663 14.0868 18.5383 14.4037 18.2823 14.6597C18.0263 14.9157 17.7099 15.0432 17.333 15.0423H14.6663ZM22.6663 27.0423C22.2886 27.0423 21.9721 26.9143 21.717 26.6583C21.4619 26.4023 21.3339 26.0859 21.333 25.709V21.709C21.333 21.3312 21.461 21.0148 21.717 20.7597C21.973 20.5045 22.2895 20.3765 22.6663 20.3757H25.333C25.7108 20.3757 26.0277 20.5037 26.2837 20.7597C26.5397 21.0157 26.6672 21.3321 26.6663 21.709V25.709C26.6663 26.0868 26.5383 26.4037 26.2823 26.6597C26.0263 26.9157 25.7099 27.0432 25.333 27.0423H22.6663ZM22.6663 19.0423C22.2886 19.0423 21.9721 18.9143 21.717 18.6583C21.4619 18.4023 21.3339 18.0859 21.333 17.709V15.0423C21.333 14.6645 21.461 14.3481 21.717 14.093C21.973 13.8379 22.2895 13.7099 22.6663 13.709H25.333C25.7108 13.709 26.0277 13.837 26.2837 14.093C26.5397 14.349 26.6672 14.6654 26.6663 15.0423V17.709C26.6663 18.0868 26.5383 18.4037 26.2823 18.6597C26.0263 18.9157 25.7099 19.0432 25.333 19.0423H22.6663Z" fill="#F0FFFA"/>
</svg>
