<svg width="33" height="32" viewBox="0 0 33 32" fill="none" xmlns="http://www.w3.org/2000/svg">
<path d="M10.9997 15.667V10.0003C10.9997 9.44477 11.1943 8.97277 11.5837 8.58433C11.973 8.19588 12.445 8.00122 12.9997 8.00033C13.5543 7.99944 14.0268 8.19411 14.417 8.58433C14.8072 8.97455 15.0015 9.44655 14.9997 10.0003V15.667C14.9997 16.2226 14.8055 16.695 14.417 17.0843C14.0286 17.4737 13.5561 17.6679 12.9997 17.667C12.4432 17.6661 11.9712 17.4719 11.5837 17.0843C11.1961 16.6968 11.0015 16.2243 10.9997 15.667ZM17.6663 15.367V4.667C17.6663 4.11144 17.861 3.63944 18.2503 3.251C18.6397 2.86255 19.1117 2.66788 19.6663 2.667C20.221 2.66611 20.6935 2.86077 21.0837 3.251C21.4739 3.64122 21.6681 4.11322 21.6663 4.667V15.367C21.6663 16.0337 21.461 16.5337 21.0503 16.867C20.6397 17.2003 20.1783 17.367 19.6663 17.367C19.1543 17.367 18.6935 17.2003 18.2837 16.867C17.8739 16.5337 17.6681 16.0337 17.6663 15.367ZM4.33301 19.967V15.3337C4.33301 14.7781 4.52767 14.3061 4.91701 13.9177C5.30634 13.5292 5.77834 13.3346 6.33301 13.3337C6.88767 13.3328 7.36012 13.5274 7.75034 13.9177C8.14056 14.3079 8.33479 14.7799 8.33301 15.3337V19.967C8.33301 20.6337 8.12767 21.1337 7.71701 21.467C7.30634 21.8003 6.84501 21.967 6.33301 21.967C5.82101 21.967 5.36012 21.8003 4.95034 21.467C4.54056 21.1337 4.33479 20.6337 4.33301 19.967ZM7.53301 28.067C6.95523 28.067 6.54945 27.795 6.31567 27.251C6.0819 26.707 6.17656 26.2234 6.59967 25.8003L12.0663 20.3337C12.3108 20.0892 12.6055 19.9559 12.9503 19.9337C13.2952 19.9114 13.6006 20.0226 13.8663 20.267L17.6663 23.5337L25.133 16.067H24.333C23.9552 16.067 23.6388 15.939 23.3837 15.683C23.1286 15.427 23.0006 15.1106 22.9997 14.7337C22.9988 14.3568 23.1268 14.0403 23.3837 13.7843C23.6406 13.5283 23.957 13.4003 24.333 13.4003H28.333C28.7108 13.4003 29.0277 13.5283 29.2837 13.7843C29.5397 14.0403 29.6672 14.3568 29.6663 14.7337V18.7337C29.6663 19.1114 29.5383 19.4283 29.2823 19.6843C29.0263 19.9403 28.7099 20.0679 28.333 20.067C27.9561 20.0661 27.6397 19.9381 27.3837 19.683C27.1277 19.4279 26.9997 19.1114 26.9997 18.7337V17.9337L18.6663 26.267C18.4219 26.5114 18.1272 26.6448 17.7823 26.667C17.4375 26.6892 17.1321 26.5781 16.8663 26.3337L13.0663 23.067L8.46634 27.667C8.35523 27.7781 8.21656 27.8728 8.05034 27.951C7.88412 28.0292 7.71167 28.0679 7.53301 28.067Z" fill="#F0FFFA"/>
</svg>
