<svg preserveAspectRatio="none" overflow="visible" style="display: block;" width="16" height="16" viewBox="0 0 16 16" fill="none" xmlns="http://www.w3.org/2000/svg">
<g id="material-symbols:arrow-insert-rounded">
<path id="Vector" d="M5.33333 5.5987V10.6654C5.33333 10.8543 5.26933 11.0127 5.14133 11.1407C5.01333 11.2687 4.85511 11.3325 4.66667 11.332C4.47822 11.3316 4.32 11.2676 4.192 11.14C4.064 11.0125 4 10.8543 4 10.6654V3.9987C4 3.80981 4.064 3.65159 4.192 3.52403C4.32 3.39648 4.47822 3.33248 4.66667 3.33203H11.3333C11.5222 3.33203 11.6807 3.39603 11.8087 3.52403C11.9367 3.65203 12.0004 3.81025 12 3.9987C11.9996 4.18714 11.9356 4.34559 11.808 4.47403C11.6804 4.60248 11.5222 4.66625 11.3333 4.66536H6.26667L12.2 10.5987C12.3222 10.7209 12.3833 10.8765 12.3833 11.0654C12.3833 11.2543 12.3222 11.4098 12.2 11.532C12.0778 11.6543 11.9222 11.7154 11.7333 11.7154C11.5444 11.7154 11.3889 11.6543 11.2667 11.532L5.33333 5.5987Z" fill="white"/>
</g>
</svg>
