<svg width="32" height="32" viewBox="0 0 32 32" fill="none" xmlns="http://www.w3.org/2000/svg">
<path d="M18.0003 29.3337C15.6003 29.3337 13.5559 28.4892 11.867 26.8003C10.1781 25.1114 9.33366 23.067 9.33366 20.667V19.9003C7.42255 19.5892 5.83366 18.6946 4.56699 17.2163C3.30033 15.7381 2.66699 13.9994 2.66699 12.0003V5.33366C2.66699 4.95589 2.79499 4.63944 3.05099 4.38433C3.30699 4.12922 3.62344 4.00122 4.00033 4.00033H6.66699C6.66699 3.62255 6.79499 3.30611 7.05099 3.051C7.30699 2.79589 7.62344 2.66789 8.00033 2.667C8.37721 2.66611 8.6941 2.79411 8.95099 3.051C9.20788 3.30789 9.33544 3.62433 9.33366 4.00033V6.667C9.33366 7.04477 9.20566 7.36166 8.94966 7.61766C8.69366 7.87366 8.37721 8.00122 8.00033 8.00033C7.62344 7.99944 7.30699 7.87144 7.05099 7.61633C6.79499 7.36122 6.66699 7.04477 6.66699 6.667H5.33366V12.0003C5.33366 13.467 5.85588 14.7226 6.90033 15.767C7.94477 16.8114 9.20033 17.3337 10.667 17.3337C12.1337 17.3337 13.3892 16.8114 14.4337 15.767C15.4781 14.7226 16.0003 13.467 16.0003 12.0003V6.667H14.667C14.667 7.04477 14.539 7.36166 14.283 7.61766C14.027 7.87366 13.7105 8.00122 13.3337 8.00033C12.9568 7.99944 12.6403 7.87144 12.3843 7.61633C12.1283 7.36122 12.0003 7.04477 12.0003 6.667V4.00033C12.0003 3.62255 12.1283 3.30611 12.3843 3.051C12.6403 2.79589 12.9568 2.66789 13.3337 2.667C13.7105 2.66611 14.0274 2.79411 14.2843 3.051C14.5412 3.30789 14.6688 3.62433 14.667 4.00033H17.3337C17.7114 4.00033 18.0283 4.12833 18.2843 4.38433C18.5403 4.64033 18.6679 4.95677 18.667 5.33366V12.0003C18.667 14.0003 18.0337 15.7394 16.767 17.2177C15.5003 18.6959 13.9114 19.5901 12.0003 19.9003V20.667C12.0003 22.3337 12.5839 23.7506 13.751 24.9177C14.9181 26.0848 16.3345 26.6679 18.0003 26.667C19.6661 26.6661 21.083 26.083 22.251 24.9177C23.419 23.7523 24.0021 22.3354 24.0003 20.667V18.4337C23.2225 18.1448 22.5839 17.6612 22.0843 16.983C21.5848 16.3048 21.3345 15.5328 21.3337 14.667C21.3337 13.5559 21.7225 12.6114 22.5003 11.8337C23.2781 11.0559 24.2225 10.667 25.3337 10.667C26.4448 10.667 27.3892 11.0559 28.167 11.8337C28.9448 12.6114 29.3337 13.5559 29.3337 14.667C29.3337 15.5337 29.0839 16.3061 28.5843 16.9843C28.0848 17.6626 27.4457 18.1457 26.667 18.4337V20.667C26.667 23.067 25.8225 25.1114 24.1337 26.8003C22.4448 28.4892 20.4003 29.3337 18.0003 29.3337ZM25.3337 16.0003C25.7114 16.0003 26.0283 15.8723 26.2843 15.6163C26.5403 15.3603 26.6679 15.0439 26.667 14.667C26.6661 14.2901 26.5381 13.9737 26.283 13.7177C26.0279 13.4617 25.7114 13.3337 25.3337 13.3337C24.9559 13.3337 24.6394 13.4617 24.3843 13.7177C24.1292 13.9737 24.0012 14.2901 24.0003 14.667C23.9994 15.0439 24.1274 15.3608 24.3843 15.6177C24.6412 15.8746 24.9577 16.0021 25.3337 16.0003Z" fill="#F0FFFA"/>
</svg>
