<svg width="32" height="33" viewBox="0 0 32 33" fill="none" xmlns="http://www.w3.org/2000/svg">
<path d="M1.33333 24.6455C0.955556 24.6455 0.639111 24.5175 0.384 24.2615C0.128889 24.0055 0.000888889 23.6891 0 23.3122V22.5455C0 21.59 0.488889 20.8122 1.46667 20.2122C2.44444 19.6122 3.73333 19.3122 5.33333 19.3122C5.62222 19.3122 5.9 19.318 6.16667 19.3295C6.43333 19.3411 6.68889 19.3686 6.93333 19.4122C6.62222 19.8788 6.38889 20.3677 6.23333 20.8788C6.07778 21.39 6 21.9233 6 22.4788V24.6455H1.33333ZM9.33333 24.6455C8.95556 24.6455 8.63911 24.5175 8.384 24.2615C8.12889 24.0055 8.00089 23.6891 8 23.3122V22.4788C8 21.7677 8.19467 21.1175 8.584 20.5282C8.97333 19.9388 9.52311 19.4224 10.2333 18.9788C10.9436 18.5353 11.7938 18.202 12.784 17.9788C13.7742 17.7557 14.8462 17.6446 16 17.6455C17.1778 17.6455 18.2613 17.7566 19.2507 17.9788C20.24 18.2011 21.0898 18.5344 21.8 18.9788C22.5102 19.4233 23.0547 19.9402 23.4333 20.5295C23.812 21.1188 24.0009 21.7686 24 22.4788V23.3122C24 23.69 23.8724 24.0068 23.6173 24.2628C23.3622 24.5188 23.0453 24.6464 22.6667 24.6455H9.33333ZM26 24.6455V22.4788C26 21.9011 25.928 21.3566 25.784 20.8455C25.64 20.3344 25.4231 19.8566 25.1333 19.4122C25.3778 19.3677 25.628 19.3402 25.884 19.3295C26.14 19.3188 26.4009 19.3131 26.6667 19.3122C28.2667 19.3122 29.5556 19.6068 30.5333 20.1962C31.5111 20.7855 32 21.5686 32 22.5455V23.3122C32 23.69 31.872 24.0068 31.616 24.2628C31.36 24.5188 31.0436 24.6464 30.6667 24.6455H26ZM10.8333 21.9788H21.2C20.9778 21.5344 20.3609 21.1455 19.3493 20.8122C18.3378 20.4788 17.2213 20.3122 16 20.3122C14.7787 20.3122 13.6622 20.4788 12.6507 20.8122C11.6391 21.1455 11.0333 21.5344 10.8333 21.9788ZM5.33333 17.9788C4.6 17.9788 3.97244 17.718 3.45067 17.1962C2.92889 16.6744 2.66756 16.0464 2.66667 15.3122C2.66667 14.5566 2.928 13.9233 3.45067 13.4122C3.97333 12.9011 4.60089 12.6455 5.33333 12.6455C6.08889 12.6455 6.72222 12.9011 7.23333 13.4122C7.74444 13.9233 8 14.5566 8 15.3122C8 16.0455 7.74444 16.6735 7.23333 17.1962C6.72222 17.7188 6.08889 17.9797 5.33333 17.9788ZM26.6667 17.9788C25.9333 17.9788 25.3058 17.718 24.784 17.1962C24.2622 16.6744 24.0009 16.0464 24 15.3122C24 14.5566 24.2613 13.9233 24.784 13.4122C25.3067 12.9011 25.9342 12.6455 26.6667 12.6455C27.4222 12.6455 28.0556 12.9011 28.5667 13.4122C29.0778 13.9233 29.3333 14.5566 29.3333 15.3122C29.3333 16.0455 29.0778 16.6735 28.5667 17.1962C28.0556 17.7188 27.4222 17.9797 26.6667 17.9788ZM16 16.6455C14.8889 16.6455 13.9444 16.2566 13.1667 15.4788C12.3889 14.7011 12 13.7566 12 12.6455C12 11.5122 12.3889 10.5624 13.1667 9.79617C13.9444 9.02995 14.8889 8.6464 16 8.64551C17.1333 8.64551 18.0836 9.02906 18.8507 9.79617C19.6178 10.5633 20.0009 11.5131 20 12.6455C20 13.7566 19.6169 14.7011 18.8507 15.4788C18.0844 16.2566 17.1342 16.6455 16 16.6455ZM16 13.9788C16.3778 13.9788 16.6947 13.8508 16.9507 13.5948C17.2067 13.3388 17.3342 13.0224 17.3333 12.6455C17.3324 12.2686 17.2044 11.9522 16.9493 11.6962C16.6942 11.4402 16.3778 11.3122 16 11.3122C15.6222 11.3122 15.3058 11.4402 15.0507 11.6962C14.7956 11.9522 14.6676 12.2686 14.6667 12.6455C14.6658 13.0224 14.7938 13.3393 15.0507 13.5962C15.3076 13.8531 15.624 13.9806 16 13.9788Z" fill="#F0FFFA"/>
</svg>
