<svg width="32" height="33" viewBox="0 0 32 33" fill="none" xmlns="http://www.w3.org/2000/svg">
<path d="M16.0003 30.1842C14.1559 30.1842 12.4226 29.834 10.8003 29.1336C9.17811 28.4331 7.76699 27.4834 6.56699 26.2842C5.36699 25.0851 4.41722 23.674 3.71766 22.0509C3.01811 20.4278 2.66788 18.6945 2.66699 16.8509C2.6661 15.0074 3.01633 13.274 3.71766 11.6509C4.41899 10.0278 5.36877 8.61669 6.56699 7.41758C7.76522 6.21847 9.17633 5.26869 10.8003 4.56824C12.4243 3.8678 14.1577 3.51758 16.0003 3.51758C17.843 3.51758 19.5763 3.8678 21.2003 4.56824C22.8243 5.26869 24.2354 6.21847 25.4337 7.41758C26.6319 8.61669 27.5821 10.0278 28.2843 11.6509C28.9866 13.274 29.3363 15.0074 29.3337 16.8509C29.331 18.6945 28.9808 20.4278 28.283 22.0509C27.5852 23.674 26.6354 25.0851 25.4337 26.2842C24.2319 27.4834 22.8208 28.4336 21.2003 29.1349C19.5799 29.8362 17.8465 30.186 16.0003 30.1842ZM16.0003 27.5176C17.2003 27.5176 18.3559 27.3234 19.467 26.9349C20.5781 26.5465 21.6003 25.9851 22.5337 25.2509L7.60033 10.3176C6.86699 11.2509 6.30566 12.2731 5.91633 13.3842C5.52699 14.4954 5.33277 15.6509 5.33366 16.8509C5.33366 19.8287 6.36699 22.3509 8.43366 24.4176C10.5003 26.4842 13.0225 27.5176 16.0003 27.5176ZM24.4003 23.3842C25.1337 22.4509 25.695 21.4287 26.0843 20.3176C26.4737 19.2065 26.6679 18.0509 26.667 16.8509C26.667 13.8731 25.6337 11.3509 23.567 9.28424C21.5003 7.21758 18.9781 6.18424 16.0003 6.18424C14.8003 6.18424 13.6448 6.37847 12.5337 6.76691C11.4225 7.15536 10.4003 7.71669 9.46699 8.45091L24.4003 23.3842Z" fill="#F0FFFA"/>
</svg>
