<svg width="33" height="33" viewBox="0 0 33 33" fill="none" xmlns="http://www.w3.org/2000/svg">
<path d="M6.99967 11.3125H25.6663V8.64584H6.99967V11.3125ZM6.99967 29.9792C6.26634 29.9792 5.63879 29.7183 5.11701 29.1965C4.59523 28.6747 4.3339 28.0467 4.33301 27.3125V8.64584C4.33301 7.9125 4.59434 7.28495 5.11701 6.76317C5.63967 6.24139 6.26723 5.98006 6.99967 5.97917H8.33301V4.64584C8.33301 4.26806 8.46101 3.95162 8.71701 3.6965C8.97301 3.44139 9.28945 3.31339 9.66634 3.3125C10.0432 3.31162 10.3601 3.43962 10.617 3.6965C10.8739 3.95339 11.0015 4.26984 10.9997 4.64584V5.97917H21.6663V4.64584C21.6663 4.26806 21.7943 3.95162 22.0503 3.6965C22.3063 3.44139 22.6228 3.31339 22.9997 3.3125C23.3766 3.31162 23.6935 3.43962 23.9503 3.6965C24.2072 3.95339 24.3348 4.26984 24.333 4.64584V5.97917H25.6663C26.3997 5.97917 27.0277 6.2405 27.5503 6.76317C28.073 7.28584 28.3339 7.91339 28.333 8.64584V14.8792C28.333 15.257 28.205 15.5738 27.949 15.8298C27.693 16.0858 27.3766 16.2134 26.9997 16.2125C26.6228 16.2116 26.3063 16.0836 26.0503 15.8285C25.7943 15.5734 25.6663 15.257 25.6663 14.8792V13.9792H6.99967V27.3125H14.733C15.1108 27.3125 15.4277 27.4405 15.6837 27.6965C15.9397 27.9525 16.0672 28.269 16.0663 28.6458C16.0655 29.0227 15.9375 29.3396 15.6823 29.5965C15.4272 29.8534 15.1108 29.981 14.733 29.9792H6.99967ZM24.333 31.3125C22.4886 31.3125 20.9166 30.6623 19.617 29.3618C18.3175 28.0614 17.6672 26.4894 17.6663 24.6458C17.6655 22.8023 18.3157 21.2303 19.617 19.9298C20.9183 18.6294 22.4903 17.9792 24.333 17.9792C26.1757 17.9792 27.7481 18.6294 29.0503 19.9298C30.3526 21.2303 31.0023 22.8023 30.9997 24.6458C30.997 26.4894 30.3468 28.0618 29.049 29.3632C27.7512 30.6645 26.1792 31.3143 24.333 31.3125ZM24.9997 24.3792V21.3125C24.9997 21.1347 24.933 20.9792 24.7997 20.8458C24.6663 20.7125 24.5108 20.6458 24.333 20.6458C24.1552 20.6458 23.9997 20.7125 23.8663 20.8458C23.733 20.9792 23.6663 21.1347 23.6663 21.3125V24.3458C23.6663 24.5236 23.6997 24.6961 23.7663 24.8632C23.833 25.0303 23.933 25.1801 24.0663 25.3125L26.0997 27.3458C26.233 27.4792 26.3886 27.5458 26.5663 27.5458C26.7441 27.5458 26.8997 27.4792 27.033 27.3458C27.1663 27.2125 27.233 27.0569 27.233 26.8792C27.233 26.7014 27.1663 26.5458 27.033 26.4125L24.9997 24.3792Z" fill="#F0FFFA"/>
</svg>
