<svg width="32" height="33" viewBox="0 0 32 33" fill="none" xmlns="http://www.w3.org/2000/svg">
<path d="M14.1332 18.7743L11.2665 15.9077C11.0221 15.6632 10.711 15.541 10.3332 15.541C9.95539 15.541 9.64428 15.6632 9.39984 15.9077C9.1554 16.1521 9.03317 16.4632 9.03317 16.841C9.03317 17.2188 9.1554 17.5299 9.39984 17.7743L13.1998 21.5743C13.4665 21.841 13.7776 21.9744 14.1332 21.9744C14.4887 21.9744 14.7998 21.841 15.0665 21.5743L22.5998 14.041C22.8443 13.7966 22.9665 13.4855 22.9665 13.1077C22.9665 12.7299 22.8443 12.4188 22.5998 12.1743C22.3554 11.9299 22.0443 11.8077 21.6665 11.8077C21.2887 11.8077 20.9776 11.9299 20.7332 12.1743L14.1332 18.7743ZM15.9998 29.7077C14.1554 29.7077 12.4221 29.3575 10.7998 28.657C9.17762 27.9566 7.76651 27.0068 6.56651 25.8077C5.36651 24.6086 4.41673 23.1975 3.71717 21.5743C3.01762 19.9512 2.66739 18.2179 2.66651 16.3743C2.66562 14.5308 3.01584 12.7975 3.71717 11.1743C4.41851 9.55124 5.36828 8.14013 6.56651 6.94102C7.76473 5.7419 9.17584 4.79213 10.7998 4.09168C12.4238 3.39124 14.1572 3.04102 15.9998 3.04102C17.8425 3.04102 19.5758 3.39124 21.1998 4.09168C22.8238 4.79213 24.235 5.7419 25.4332 6.94102C26.6314 8.14013 27.5816 9.55124 28.2838 11.1743C28.9861 12.7975 29.3358 14.5308 29.3332 16.3743C29.3305 18.2179 28.9803 19.9512 28.2825 21.5743C27.5847 23.1975 26.635 24.6086 25.4332 25.8077C24.2314 27.0068 22.8203 27.957 21.1998 28.6583C19.5794 29.3597 17.8461 29.7095 15.9998 29.7077ZM15.9998 27.041C18.9776 27.041 21.4998 26.0077 23.5665 23.941C25.6332 21.8743 26.6665 19.3521 26.6665 16.3743C26.6665 13.3966 25.6332 10.8743 23.5665 8.80768C21.4998 6.74102 18.9776 5.70768 15.9998 5.70768C13.0221 5.70768 10.4998 6.74102 8.43317 8.80768C6.36651 10.8743 5.33317 13.3966 5.33317 16.3743C5.33317 19.3521 6.36651 21.8743 8.43317 23.941C10.4998 26.0077 13.0221 27.041 15.9998 27.041Z" fill="#F0FFFA"/>
</svg>
