<svg width="32" height="33" viewBox="0 0 32 33" fill="none" xmlns="http://www.w3.org/2000/svg">
<path d="M21.3332 27.0423C20.9554 27.0423 20.6389 26.9143 20.3838 26.6583C20.1287 26.4023 20.0007 26.0859 19.9998 25.709V19.0423C19.9998 18.6645 20.1278 18.3481 20.3838 18.093C20.6398 17.8379 20.9563 17.7099 21.3332 17.709H27.9998C28.3776 17.709 28.6945 17.837 28.9505 18.093C29.2065 18.349 29.3341 18.6654 29.3332 19.0423V25.709C29.3332 26.0868 29.2052 26.4037 28.9492 26.6597C28.6932 26.9157 28.3767 27.0432 27.9998 27.0423H21.3332ZM15.9998 15.0423C15.6221 15.0423 15.3056 14.9143 15.0505 14.6583C14.7954 14.4023 14.6674 14.0859 14.6665 13.709V7.04232C14.6665 6.66454 14.7945 6.3481 15.0505 6.09298C15.3065 5.83787 15.6229 5.70987 15.9998 5.70898H27.9998C28.3776 5.70898 28.6945 5.83698 28.9505 6.09298C29.2065 6.34898 29.3341 6.66543 29.3332 7.04232V13.709C29.3332 14.0868 29.2052 14.4037 28.9492 14.6597C28.6932 14.9157 28.3767 15.0432 27.9998 15.0423H15.9998ZM3.99984 27.0423C3.62206 27.0423 3.30562 26.9143 3.0505 26.6583C2.79539 26.4023 2.66739 26.0859 2.6665 25.709V19.0423C2.6665 18.6645 2.7945 18.3481 3.0505 18.093C3.3065 17.8379 3.62295 17.7099 3.99984 17.709H15.9998C16.3776 17.709 16.6945 17.837 16.9505 18.093C17.2065 18.349 17.3341 18.6654 17.3332 19.0423V25.709C17.3332 26.0868 17.2052 26.4037 16.9492 26.6597C16.6932 26.9157 16.3767 27.0432 15.9998 27.0423H3.99984ZM3.99984 15.0423C3.62206 15.0423 3.30562 14.9143 3.0505 14.6583C2.79539 14.4023 2.66739 14.0859 2.6665 13.709V7.04232C2.6665 6.66454 2.7945 6.3481 3.0505 6.09298C3.3065 5.83787 3.62295 5.70987 3.99984 5.70898H10.6665C11.0443 5.70898 11.3612 5.83698 11.6172 6.09298C11.8732 6.34898 12.0007 6.66543 11.9998 7.04232V13.709C11.9998 14.0868 11.8718 14.4037 11.6158 14.6597C11.3598 14.9157 11.0434 15.0432 10.6665 15.0423H3.99984ZM17.3332 12.3757H26.6665V8.37565H17.3332V12.3757ZM5.33317 24.3757H14.6665V20.3757H5.33317V24.3757ZM22.6665 24.3757H26.6665V20.3757H22.6665V24.3757ZM5.33317 12.3757H9.33317V8.37565H5.33317V12.3757Z" fill="#F0FFFA"/>
</svg>
