<svg width="32" height="33" viewBox="0 0 32 33" fill="none" xmlns="http://www.w3.org/2000/svg">
<path d="M15.9998 27.041C17.6665 27.041 19.0834 26.4579 20.2505 25.2917C21.4176 24.1255 22.0007 22.7086 21.9998 21.041C21.9989 19.3735 21.4158 17.957 20.2505 16.7917C19.0852 15.6263 17.6683 15.0428 15.9998 15.041C14.3314 15.0392 12.9149 15.6228 11.7505 16.7917C10.5861 17.9606 10.0025 19.377 9.99984 21.041C9.99717 22.705 10.5807 24.1219 11.7505 25.2917C12.9203 26.4615 14.3367 27.0446 15.9998 27.041ZM12.0998 13.3077C12.5443 13.0632 13.0167 12.869 13.5172 12.725C14.0176 12.581 14.5229 12.4863 15.0332 12.441L11.6665 5.70768H8.33317L12.0998 13.3077ZM8.53317 25.441C8.15539 24.7966 7.86073 24.1024 7.64917 23.3584C7.43762 22.6144 7.33228 21.8419 7.33317 21.041C7.33406 20.2401 7.43984 19.4681 7.6505 18.725C7.86117 17.9819 8.15539 17.2872 8.53317 16.641C7.59984 16.9521 6.83317 17.5023 6.23317 18.2917C5.63317 19.081 5.33317 19.9975 5.33317 21.041C5.33317 22.0846 5.63317 23.0015 6.23317 23.7917C6.83317 24.5819 7.59984 25.1317 8.53317 25.441ZM23.4665 25.441C24.3998 25.1299 25.1665 24.5801 25.7665 23.7917C26.3665 23.0032 26.6665 22.0863 26.6665 21.041C26.6665 19.9957 26.3665 19.0792 25.7665 18.2917C25.1665 17.5041 24.3998 16.9539 23.4665 16.641C23.8443 17.2855 24.1389 17.9801 24.3505 18.725C24.5621 19.4699 24.6674 20.2419 24.6665 21.041C24.6656 21.8401 24.5598 22.6126 24.3492 23.3584C24.1385 24.1041 23.8443 24.7983 23.4665 25.441ZM15.9998 29.7077C15.1109 29.7077 14.2612 29.5797 13.4505 29.3237C12.6398 29.0677 11.8896 28.7184 11.1998 28.2757C10.9998 28.3201 10.7998 28.3481 10.5998 28.3597C10.3998 28.3712 10.1887 28.3761 9.9665 28.3743C7.94428 28.3743 6.22206 27.6632 4.79984 26.241C3.37761 24.8188 2.6665 23.0966 2.6665 21.0743C2.6665 19.141 3.31095 17.4855 4.59984 16.1077C5.88873 14.7299 7.47762 13.9632 9.3665 13.8077L4.9665 4.97435C4.74428 4.5299 4.76117 4.09657 5.01717 3.67435C5.27317 3.25213 5.65628 3.04102 6.1665 3.04102H11.6998C12.2109 3.04102 12.6723 3.17435 13.0838 3.44102C13.4954 3.70768 13.8229 4.06324 14.0665 4.50768L15.9998 8.37435L17.9332 4.50768C18.1776 4.06324 18.5056 3.70768 18.9172 3.44102C19.3287 3.17435 19.7896 3.04102 20.2998 3.04102H25.8332C26.3443 3.04102 26.7278 3.25213 26.9838 3.67435C27.2398 4.09657 27.2563 4.5299 27.0332 4.97435L22.6665 13.741C24.5554 13.9188 26.1389 14.6966 27.4172 16.0743C28.6954 17.4521 29.3341 19.1077 29.3332 21.041C29.3332 23.0855 28.6221 24.8188 27.1998 26.241C25.7776 27.6632 24.0443 28.3743 21.9998 28.3743C21.7998 28.3743 21.5945 28.369 21.3838 28.3584C21.1732 28.3477 20.9674 28.3197 20.7665 28.2743C20.0776 28.7188 19.3332 29.069 18.5332 29.325C17.7332 29.581 16.8887 29.7086 15.9998 29.7077ZM15.9998 22.841L14.3665 24.0743C14.2332 24.1855 14.0998 24.1912 13.9665 24.0917C13.8332 23.9921 13.7887 23.8641 13.8332 23.7077L14.4665 21.6744L12.8332 20.5077C12.6998 20.3966 12.6554 20.2686 12.6998 20.1237C12.7443 19.9788 12.8554 19.9068 13.0332 19.9077H15.0332L15.6665 17.741C15.7109 17.5855 15.8221 17.5077 15.9998 17.5077C16.1776 17.5077 16.2887 17.5855 16.3332 17.741L16.9665 19.9077H18.9665C19.1443 19.9077 19.2554 19.9801 19.2998 20.125C19.3443 20.2699 19.2998 20.3975 19.1665 20.5077L17.5332 21.6744L18.1665 23.7077C18.2109 23.8632 18.1665 23.9912 18.0332 24.0917C17.8998 24.1921 17.7665 24.1863 17.6332 24.0743L15.9998 22.841ZM19.8998 13.3077L23.6998 5.70768H20.3332L17.4998 11.3743L18.1332 12.641C18.4443 12.7299 18.7443 12.8246 19.0332 12.925C19.3221 13.0255 19.6109 13.153 19.8998 13.3077Z" fill="#F0FFFA"/>
</svg>
