<svg width="33" height="32" viewBox="0 0 33 32" fill="none" xmlns="http://www.w3.org/2000/svg">
<path d="M12.667 28C12.2892 28 11.9728 27.872 11.7177 27.616C11.4625 27.36 11.3345 27.0436 11.3337 26.6667V21.3333H6.00033C5.62255 21.3333 5.3061 21.2053 5.05099 20.9493C4.79588 20.6933 4.66788 20.3769 4.66699 20V12C4.66699 11.6222 4.79499 11.3058 5.05099 11.0507C5.30699 10.7956 5.62344 10.6676 6.00033 10.6667H11.3337V5.33333C11.3337 4.95556 11.4617 4.63911 11.7177 4.384C11.9737 4.12889 12.2901 4.00089 12.667 4H20.667C21.0448 4 21.3617 4.128 21.6177 4.384C21.8737 4.64 22.0012 4.95644 22.0003 5.33333V10.6667H27.3337C27.7114 10.6667 28.0283 10.7947 28.2843 11.0507C28.5403 11.3067 28.6679 11.6231 28.667 12V20C28.667 20.3778 28.539 20.6947 28.283 20.9507C28.027 21.2067 27.7105 21.3342 27.3337 21.3333H22.0003V26.6667C22.0003 27.0444 21.8723 27.3613 21.6163 27.6173C21.3603 27.8733 21.0439 28.0009 20.667 28H12.667ZM14.0003 25.3333H19.3337V18.6667H26.0003V13.3333H19.3337V6.66667H14.0003V13.3333H7.33366V18.6667H14.0003V25.3333Z" fill="#F0FFFA"/>
</svg>
