<svg width="32" height="33" viewBox="0 0 32 33" fill="none" xmlns="http://www.w3.org/2000/svg">
<path d="M3.99968 24.8506C3.26634 24.8506 2.63879 24.5897 2.11701 24.0679C1.59523 23.5461 1.3339 22.9181 1.33301 22.1839C1.33212 21.4497 1.59345 20.8221 2.11701 20.3013C2.64057 19.7804 3.26812 19.519 3.99968 19.5173H4.35034C4.4499 19.5173 4.55523 19.5395 4.66634 19.5839L10.733 13.5173C10.6886 13.4061 10.6663 13.3004 10.6663 13.1999V12.8506C10.6663 12.1173 10.9277 11.4897 11.4503 10.9679C11.973 10.4461 12.6006 10.1848 13.333 10.1839C14.0655 10.183 14.6935 10.4444 15.217 10.9679C15.7406 11.4915 16.0015 12.119 15.9997 12.8506C15.9997 12.895 15.9775 13.1173 15.933 13.5173L19.333 16.9173C19.4441 16.8728 19.5499 16.8506 19.6503 16.8506H20.3503C20.4499 16.8506 20.5552 16.8728 20.6663 16.9173L25.3997 12.1839C25.3552 12.0728 25.333 11.967 25.333 11.8666V11.5173C25.333 10.7839 25.5943 10.1564 26.117 9.63459C26.6397 9.11281 27.2672 8.85148 27.9997 8.85059C28.7321 8.8497 29.3601 9.11103 29.8837 9.63459C30.4072 10.1581 30.6681 10.7857 30.6663 11.5173C30.6646 12.2488 30.4037 12.8768 29.8837 13.4013C29.3637 13.9257 28.7357 14.1866 27.9997 14.1839H27.6503C27.5499 14.1839 27.4441 14.1617 27.333 14.1173L22.5997 18.8506C22.6441 18.9617 22.6663 19.0675 22.6663 19.1679V19.5173C22.6663 20.2506 22.4055 20.8786 21.8837 21.4013C21.3619 21.9239 20.7339 22.1848 19.9997 22.1839C19.2655 22.183 18.6379 21.9221 18.117 21.4013C17.5961 20.8804 17.3348 20.2524 17.333 19.5173V19.1679C17.333 19.0675 17.3552 18.9617 17.3997 18.8506L13.9997 15.4506C13.8886 15.495 13.7828 15.5173 13.6823 15.5173H13.333C13.2886 15.5173 13.0663 15.495 12.6663 15.4506L6.59968 21.5173C6.64412 21.6284 6.66634 21.7341 6.66634 21.8346V22.1839C6.66634 22.9173 6.40545 23.5453 5.88368 24.0679C5.3619 24.5906 4.7339 24.8515 3.99968 24.8506Z" fill="#F0FFFA"/>
</svg>
