<svg width="33" height="33" viewBox="0 0 33 33" fill="none" xmlns="http://www.w3.org/2000/svg">
<path d="M16.6667 16.6452C15.2 16.6452 13.9444 16.123 12.9 15.0785C11.8556 14.0341 11.3333 12.7785 11.3333 11.3118C11.3333 9.84518 11.8556 8.58963 12.9 7.54518C13.9444 6.50074 15.2 5.97852 16.6667 5.97852C18.1333 5.97852 19.3889 6.50074 20.4333 7.54518C21.4778 8.58963 22 9.84518 22 11.3118C22 12.7785 21.4778 14.0341 20.4333 15.0785C19.3889 16.123 18.1333 16.6452 16.6667 16.6452ZM6 24.6452V23.5785C6 22.823 6.19467 22.1287 6.584 21.4958C6.97333 20.863 7.48978 20.3794 8.13333 20.0452C9.51111 19.3563 10.9111 18.8398 12.3333 18.4958C13.7556 18.1518 15.2 17.9794 16.6667 17.9785C18.1333 17.9776 19.5778 18.1501 21 18.4958C22.4222 18.8416 23.8222 19.3581 25.2 20.0452C25.8444 20.3785 26.3613 20.8621 26.7507 21.4958C27.14 22.1296 27.3342 22.8239 27.3333 23.5785V24.6452C27.3333 25.3785 27.0724 26.0065 26.5507 26.5292C26.0289 27.0518 25.4009 27.3127 24.6667 27.3118H8.66667C7.93333 27.3118 7.30578 27.051 6.784 26.5292C6.26222 26.0074 6.00089 25.3794 6 24.6452ZM8.66667 24.6452H24.6667V23.5785C24.6667 23.3341 24.6058 23.1119 24.484 22.9119C24.3622 22.7119 24.2009 22.5563 24 22.4452C22.8 21.8452 21.5889 21.3954 20.3667 21.0958C19.1444 20.7963 17.9111 20.6461 16.6667 20.6452C15.4222 20.6443 14.1889 20.7945 12.9667 21.0958C11.7444 21.3972 10.5333 21.847 9.33333 22.4452C9.13333 22.5563 8.972 22.7119 8.84933 22.9119C8.72667 23.1119 8.66578 23.3341 8.66667 23.5785V24.6452ZM16.6667 13.9785C17.4 13.9785 18.028 13.7176 18.5507 13.1958C19.0733 12.6741 19.3342 12.0461 19.3333 11.3118C19.3324 10.5776 19.0716 9.95007 18.5507 9.42918C18.0298 8.90829 17.4018 8.64696 16.6667 8.64518C15.9316 8.6434 15.304 8.90474 14.784 9.42918C14.264 9.95363 14.0027 10.5812 14 11.3118C13.9973 12.0425 14.2587 12.6705 14.784 13.1958C15.3093 13.7212 15.9369 13.9821 16.6667 13.9785Z" fill="#F0FFFA"/>
</svg>
