<svg width="32" height="32" viewBox="0 0 32 32" fill="none" xmlns="http://www.w3.org/2000/svg">
<path d="M6.66667 27.9997C5.93333 27.9997 5.30578 27.7388 4.784 27.217C4.26222 26.6952 4.00089 26.0672 4 25.333V6.66634C4 5.93301 4.26133 5.30545 4.784 4.78367C5.30667 4.2619 5.93422 4.00056 6.66667 3.99967H12.2667C12.5556 3.19967 13.0391 2.55523 13.7173 2.06634C14.3956 1.57745 15.1564 1.33301 16 1.33301C16.8436 1.33301 17.6049 1.57745 18.284 2.06634C18.9631 2.55523 19.4462 3.19967 19.7333 3.99967H25.3333C26.0667 3.99967 26.6947 4.26101 27.2173 4.78367C27.74 5.30634 28.0009 5.9339 28 6.66634V25.333C28 26.0663 27.7391 26.6943 27.2173 27.217C26.6956 27.7397 26.0676 28.0006 25.3333 27.9997H6.66667ZM6.66667 25.333H25.3333V6.66634H6.66667V25.333ZM10.6667 22.6663H17.3333C17.7111 22.6663 18.028 22.5383 18.284 22.2823C18.54 22.0263 18.6676 21.7099 18.6667 21.333C18.6658 20.9561 18.5378 20.6397 18.2827 20.3837C18.0276 20.1277 17.7111 19.9997 17.3333 19.9997H10.6667C10.2889 19.9997 9.97244 20.1277 9.71733 20.3837C9.46222 20.6397 9.33422 20.9561 9.33333 21.333C9.33244 21.7099 9.46044 22.0268 9.71733 22.2837C9.97422 22.5406 10.2907 22.6681 10.6667 22.6663ZM10.6667 17.333H21.3333C21.7111 17.333 22.028 17.205 22.284 16.949C22.54 16.693 22.6676 16.3766 22.6667 15.9997C22.6658 15.6228 22.5378 15.3063 22.2827 15.0503C22.0276 14.7943 21.7111 14.6663 21.3333 14.6663H10.6667C10.2889 14.6663 9.97244 14.7943 9.71733 15.0503C9.46222 15.3063 9.33422 15.6228 9.33333 15.9997C9.33244 16.3766 9.46044 16.6935 9.71733 16.9503C9.97422 17.2072 10.2907 17.3348 10.6667 17.333ZM10.6667 11.9997H21.3333C21.7111 11.9997 22.028 11.8717 22.284 11.6157C22.54 11.3597 22.6676 11.0432 22.6667 10.6663C22.6658 10.2895 22.5378 9.97301 22.2827 9.71701C22.0276 9.46101 21.7111 9.33301 21.3333 9.33301H10.6667C10.2889 9.33301 9.97244 9.46101 9.71733 9.71701C9.46222 9.97301 9.33422 10.2895 9.33333 10.6663C9.33244 11.0432 9.46044 11.3601 9.71733 11.617C9.97422 11.8739 10.2907 12.0015 10.6667 11.9997ZM16 5.66634C16.2889 5.66634 16.528 5.57167 16.7173 5.38234C16.9067 5.19301 17.0009 4.95434 17 4.66634C16.9991 4.37834 16.9044 4.13967 16.716 3.95034C16.5276 3.76101 16.2889 3.66634 16 3.66634C15.7111 3.66634 15.4724 3.76101 15.284 3.95034C15.0956 4.13967 15.0009 4.37834 15 4.66634C14.9991 4.95434 15.0938 5.19345 15.284 5.38367C15.4742 5.5739 15.7129 5.66812 16 5.66634Z" fill="#F0FFFA"/>
</svg>
