<svg width="32" height="33" viewBox="0 0 32 33" fill="none" xmlns="http://www.w3.org/2000/svg">
<path d="M3.59995 23.8759C3.33328 23.6092 3.20528 23.2928 3.21595 22.9266C3.22661 22.5603 3.35461 22.2546 3.59995 22.0092L10.6333 14.8759C11.1444 14.3648 11.7777 14.1092 12.5333 14.1092C13.2888 14.1092 13.9222 14.3648 14.4333 14.8759L17.8666 18.3426L24.7999 11.4759H22.6666C22.2888 11.4759 21.9724 11.3479 21.7173 11.0919C21.4622 10.8359 21.3342 10.5199 21.3333 10.1439C21.3324 9.76788 21.4604 9.45144 21.7173 9.19455C21.9742 8.93766 22.2906 8.80966 22.6666 8.81055H27.9999C28.3777 8.81055 28.6946 8.93855 28.9506 9.19455C29.2066 9.45055 29.3342 9.767 29.3333 10.1439V15.4772C29.3333 15.855 29.2053 16.1719 28.9493 16.4279C28.6933 16.6839 28.3768 16.8114 27.9999 16.8106C27.6231 16.8097 27.3066 16.6821 27.0506 16.4279C26.7946 16.1737 26.6666 15.8568 26.6666 15.4772V13.3439L19.7666 20.2426C19.2555 20.7537 18.6222 21.0092 17.8666 21.0092C17.1111 21.0092 16.4777 20.7537 15.9666 20.2426L12.5333 16.8092L5.46661 23.8759C5.22217 24.1203 4.91106 24.2426 4.53328 24.2426C4.1555 24.2426 3.84439 24.1203 3.59995 23.8759Z" fill="#F0FFFA"/>
</svg>
